<svg xmlns="http://www.w3.org/2000/svg" width="32" height="32" fill="none"><path fill="url(#a)" d="m14.493 4.63-1.656.397.041.174a.8.8 0 0 1-1.556.373l-.041-.173-1.656.397.041.173a.8.8 0 0 1-1.556.373l-.041-.173-1.656.397.041.173a.8.8 0 0 1-1.556.374l-.041-.174-1.657.397L8.004 27.37l1.656-.397-.042-.173a.8.8 0 1 1 1.555-.374l.041.173 1.656-.397-.041-.173a.8.8 0 0 1 .947-.968v-3.478l-1.473.632.401-1.578-1.072-1.224 1.624-.107.522-.874v-4.608l-1.984-1.796c-.516.742-1.022 1.544-1.51 2.09l.48 1.167-.788 1.212-1.072-1.742-2.04-.166.724-1.252 1.259-.1c.265-.682.75-1.497 1.177-2.293L7.34 9.92l.632-1.03 2.91.554c.547-.891 1.633-1.674 2.122-1.374.192.117.277.391.277.736 0 .534-.206 1.237-.539 1.78l1.037 1.338V9.175a1.857 1.857 0 0 1 1.375-1.792l-.66-2.753ZM9.702 18.118a.32.32 0 0 1 .385.237l1.32 5.504a.32.32 0 1 1-.622.15l-1.32-5.505a.32.32 0 0 1 .237-.386Zm-1.958.47a.32.32 0 0 1 .384.237l1.32 5.504a.32.32 0 1 1-.622.149l-1.32-5.504a.32.32 0 0 1 .238-.386Z"/><path fill="url(#b)" d="M27.584 7.96H15.633a1.216 1.216 0 0 0-1.216 1.216v15.98a1.216 1.216 0 0 0 1.216 1.216h11.951a1.216 1.216 0 0 0 1.216-1.216V9.176a1.215 1.215 0 0 0-1.216-1.216Zm-1.079 6.92c0 .679-.14 1.35-.414 1.97-.709-.21-1.583-.367-2.56-.456a21.404 21.404 0 0 0 0-3.028c.978-.09 1.851-.245 2.56-.456.274.62.415 1.292.414 1.97Zm-.717-2.549c-.644.18-1.443.317-2.313.397-.103-.992-.277-1.867-.503-2.55a4.915 4.915 0 0 1 2.816 2.153Zm-2.313 4.7c.87.08 1.67.218 2.313.399a4.916 4.916 0 0 1-2.816 2.153c.226-.684.4-1.561.503-2.551Zm-2.49-7.007a4.932 4.932 0 0 1 1.248 0c.274.663.485 1.624.603 2.752a20.833 20.833 0 0 1-2.455 0c.119-1.128.33-2.088.604-2.752Zm-.66 3.392a21.58 21.58 0 0 0 2.567 0 20.38 20.38 0 0 1 0 2.93 21.322 21.322 0 0 0-2.566 0 20.494 20.494 0 0 1-.05-1.466c0-.498.016-.992.05-1.466v.002Zm2.512 3.57c-.119 1.128-.33 2.089-.604 2.751a4.927 4.927 0 0 1-1.248 0c-.274-.663-.485-1.624-.603-2.752a21.459 21.459 0 0 1 2.455-.001v.001Zm-2.59-6.81c-.227.684-.4 1.561-.504 2.551-.87-.08-1.67-.217-2.313-.397a4.917 4.917 0 0 1 2.817-2.154Zm0 9.406a4.916 4.916 0 0 1-2.816-2.153c.643-.18 1.442-.318 2.312-.398.103.99.277 1.868.504 2.553v-.002Zm-3.12-6.673c.709.212 1.583.368 2.56.457a21.383 21.383 0 0 0 0 3.027c-.978.09-1.851.246-2.56.457a4.892 4.892 0 0 1 0-3.94Zm9.405 11.439h-9.846a.32.32 0 0 1 0-.64h9.846a.32.32 0 0 1 0 .64Zm0-2.036h-9.846a.32.32 0 0 1 0-.64h9.846a.32.32 0 1 1 0 .64Z"/><defs><linearGradient id="a" x1="15.153" x2="3.2" y1="16" y2="16" gradientUnits="userSpaceOnUse"><stop stop-color="#FF8551"/><stop offset="1" stop-color="#FF6320"/></linearGradient><linearGradient id="b" x1="28.8" x2="14.417" y1="17.166" y2="17.166" gradientUnits="userSpaceOnUse"><stop stop-color="#FF8551"/><stop offset="1" stop-color="#FF6320"/></linearGradient></defs></svg>