<svg xmlns="http://www.w3.org/2000/svg" width="30" height="30" fill="none"><path fill="#DB785A" d="M16.172 1.502h-2.344v27.015h3.516V2.674c0-.647-.525-1.172-1.172-1.172Z"/><path fill="#63312D" d="M17.344 28.751h-3.516a.234.234 0 0 1-.234-.234V1.502c0-.13.105-.234.234-.234h2.344c.775 0 1.406.63 1.406 1.406v25.843c0 .13-.104.234-.234.234Zm-3.282-.469h3.047V2.674a.938.938 0 0 0-.937-.937h-2.11v26.546Z"/><path fill="#F9A287" d="M15 28.517V2.674a1.172 1.172 0 1 0-2.344 0v25.843H15Z"/><path fill="#FFC8BB" d="M14.297 1.601a1.172 1.172 0 0 0-1.64 1.073v25.843h.937V2.674c0-.48.29-.892.703-1.073Z"/><path fill="#63312D" d="M15 28.751h-2.344a.234.234 0 0 1-.234-.234V2.674c0-.775.63-1.406 1.406-1.406.775 0 1.406.63 1.406 1.406v25.843c0 .13-.104.234-.234.234Zm-2.11-.469h1.876V2.674a.938.938 0 0 0-1.875 0v25.608Z"/><path fill="#EFC36A" d="M17.813 17.747v-5.494h8.298L28.509 15l-2.398 2.747h-8.299Z"/><path fill="#63312D" d="M26.11 17.982h-8.297a.234.234 0 0 1-.235-.235v-5.494c0-.13.105-.235.235-.235h8.298c.068 0 .132.03.176.08l2.399 2.748a.234.234 0 0 1 0 .308l-2.398 2.748a.234.234 0 0 1-.177.08Zm-8.063-.469h7.957L28.198 15l-2.194-2.513h-7.957v5.026Z"/><path fill="#F9DD9D" d="M15 17.747v-5.494h8.298L25.697 15l-2.399 2.747H15Z"/><path fill="#FFEECF" d="M15.938 13.19h8.179l-.819-.937H15v5.494h.938V13.19Z"/><path fill="#63312D" d="M23.298 17.982H15a.234.234 0 0 1-.234-.235v-5.494c0-.13.105-.235.234-.235h8.298c.068 0 .133.03.177.08l2.398 2.748a.234.234 0 0 1 0 .308l-2.398 2.748a.234.234 0 0 1-.177.08Zm-8.064-.469h7.958L25.386 15l-2.194-2.513h-7.958v5.026Z"/><path fill="#F9DD9D" d="M12.656 10.674V5.179H4.358L1.96 7.927l2.398 2.747h8.298Z"/><path fill="#FFEECF" d="M12.656 6.117v-.938H4.358L1.96 7.927l2.398 2.747H5.55L3.152 7.927l1.58-1.81h7.924Z"/><path fill="#63312D" d="M12.656 10.908H4.358a.234.234 0 0 1-.176-.08L1.784 8.081a.234.234 0 0 1 0-.309l2.398-2.747a.235.235 0 0 1 .176-.08h8.298c.13 0 .235.105.235.234v5.495c0 .13-.105.234-.235.234Zm-8.191-.468h7.957V5.414H4.465L2.27 7.927l2.194 2.513Z"/><path fill="#F9DD9D" d="M12.656 24.82v-5.494H4.358L1.96 22.073l2.398 2.748h8.298Z"/><path fill="#FFEECF" d="M12.656 20.264v-.938H4.358L1.96 22.073l2.398 2.748H5.55l-2.398-2.748 1.58-1.81h7.924Z"/><path fill="#63312D" d="M12.656 25.055H4.358a.234.234 0 0 1-.176-.08l-2.398-2.747a.234.234 0 0 1 0-.309l2.398-2.747a.235.235 0 0 1 .176-.08h8.298c.13 0 .235.105.235.234v5.495c0 .13-.105.234-.235.234Zm-8.191-.469h7.957V19.56H4.465L2.27 22.073l2.194 2.513Z"/></svg>