<svg xmlns="http://www.w3.org/2000/svg" width="154" height="49" fill="none"><path fill="url(#a)" fill-rule="evenodd" d="m25.495 28.498-2.03 5.44c-.28.75-.717 1.439-1.253.871-.16-.168-.295-.395-.27-.644l.448-4.415a.069.069 0 0 1 .042-.058l2.97-1.283a.069.069 0 0 1 .075.014.07.07 0 0 1 .018.075Zm-3.851 11.168v1.513c0 .074.063.136.137.136h1.686a.138.138 0 0 0 .137-.136v-1.513a.07.07 0 0 0-.07-.07h-1.82a.07.07 0 0 0-.07.07Zm-9.247 0v1.513c0 .074.062.136.136.136h1.687a.138.138 0 0 0 .137-.136v-1.513a.07.07 0 0 0-.07-.07h-1.82a.07.07 0 0 0-.07.07ZM35.163 17.12c-.945-2.276-6.152-1.504-8.737-.977a.07.07 0 0 0-.055.058.07.07 0 0 0 .035.072c.283.158.533.37.738.62.016.02.04.03.067.024 1.661-.31 3.12-.457 4.297-.428 3.26.08 3.746 1.336 1.494 3.692-.616.644-1.414 1.33-2.366 2.039a.068.068 0 0 0-.028.064.069.069 0 0 0 .043.057l.818.345c.024.01.05.007.07-.009a18.842 18.842 0 0 0 2.122-1.869c1.343-1.405 1.917-2.688 1.502-3.688Zm-5.325 5.67a3.075 3.075 0 0 0-.974-.13c-.759.021-1.247.297-1.884.618a.068.068 0 0 1-.069-.003.068.068 0 0 1-.033-.06V19.14a2.568 2.568 0 0 0-2.562-2.561H11.685a2.568 2.568 0 0 0-2.562 2.561v12.308a.07.07 0 0 1-.057.069c-1.103.215-2.122.36-3.036.431-2.403.188-4.007-.102-4.35-.93-.286-.688.325-1.75 1.612-3.01 1.175-1.15 2.89-2.417 5.002-3.692a.068.068 0 0 0 .033-.06v-.895a.068.068 0 0 0-.035-.061.069.069 0 0 0-.07 0c-2.356 1.392-4.271 2.79-5.568 4.06C1.09 28.891.394 30.293.838 31.365c.515 1.24 2.447 1.711 5.26 1.49 2.16-.168 5.17-.931 7.979-1.804.057-.018.115-.032.17-.053.898-.344-.97-2.72-1.438-3.478a.068.068 0 0 1-.005-.064.068.068 0 0 1 .05-.04.11.11 0 0 1 .078.011l2.75 1.44c.612.319 1.241.523 1.856.212l10.413-5.267a2.156 2.156 0 0 1 1.89-.054l1.647.704a.176.176 0 0 1 0 .324c-7.226 3.122-14.523 6.966-22.308 8.451a.07.07 0 0 0-.057.069v3.055a2.568 2.568 0 0 0 2.561 2.561h12.632a2.568 2.568 0 0 0 2.562-2.561v-8.544c0-.028.016-.053.042-.064l4.928-2.13c.875-.377.873-1.624-.004-1.999l-1.001-.427h-.001l-.998-.404-.006-.003Zm-8.906-7.073v-4.602c0-.02.007-.036.021-.05a.068.068 0 0 1 .05-.02c.326 0 .597 0 .875-.277a.94.94 0 0 0 .276-.667V8.628a.945.945 0 0 0-.943-.943H14.79a.945.945 0 0 0-.943.943V10.1c0 .52.423.943.943.943h.208a.07.07 0 0 1 .07.07v4.603c0 .038.032.07.07.07h.773a.07.07 0 0 0 .07-.07v-4.602a.07.07 0 0 1 .07-.07h3.899a.07.07 0 0 1 .07.07v4.602c0 .038.032.07.07.07h.772a.07.07 0 0 0 .07-.07Zm-4.894 8.64a.078.078 0 0 0-.003-.001c-.649-.413-.371-.893.393-.679l.002.001 6.387 1.53a.07.07 0 0 1 .053.061.069.069 0 0 1-.039.07l-3.145 1.564a.069.069 0 0 1-.072-.005l-3.576-2.54Z" clip-rule="evenodd"/><path fill="#0A0322" d="M49.172 37V16.084h-7.776v-4.176h20.232v4.176h-7.74V37h-4.716Zm12.551 0V19.252h4.5v4.824l-.684.072c.072-1.032.384-1.944.936-2.736.552-.792 1.224-1.404 2.016-1.836.816-.456 1.644-.684 2.484-.684.6 0 1.164.084 1.692.252a6.131 6.131 0 0 1 1.692.756l-2.16 4.032a5.188 5.188 0 0 0-1.008-.396 4.32 4.32 0 0 0-1.224-.18c-.48 0-.948.084-1.404.252a3.438 3.438 0 0 0-1.188.792c-.336.36-.612.84-.828 1.44-.096.336-.18.768-.252 1.296-.048.504-.072 1.248-.072 2.232V37h-4.5Zm15.293 0V19.252h4.463V37h-4.463Zm-.145-20.484v-4.608h4.788v4.608h-4.788Zm9.005 27.828V19.252h4.464v4.752l-1.08.36c.312-1.416.78-2.52 1.404-3.312.648-.792 1.38-1.344 2.196-1.656a6.65 6.65 0 0 1 2.556-.504c1.56 0 2.904.408 4.032 1.224 1.152.792 2.028 1.884 2.628 3.276.6 1.392.9 2.976.9 4.752 0 1.92-.336 3.576-1.008 4.968-.672 1.368-1.584 2.424-2.736 3.168a7.057 7.057 0 0 1-3.816 1.08 6.333 6.333 0 0 1-2.664-.576 5.754 5.754 0 0 1-2.16-1.728c-.576-.792-.972-1.788-1.188-2.988l.936.144v12.132h-4.464Zm8.316-11.088c.888 0 1.644-.204 2.268-.612.648-.432 1.152-1.032 1.512-1.8.36-.768.54-1.668.54-2.7 0-1.056-.18-1.968-.54-2.736-.36-.768-.864-1.356-1.512-1.764-.624-.432-1.38-.648-2.268-.648-.864 0-1.62.216-2.268.648-.624.432-1.116 1.032-1.476 1.8-.336.744-.504 1.644-.504 2.7 0 1.032.168 1.932.504 2.7.36.768.852 1.368 1.476 1.8.648.408 1.404.612 2.268.612Zm18.512 4.104c-1.32 0-2.472-.192-3.456-.576-.984-.384-1.824-.864-2.52-1.44-.672-.576-1.212-1.128-1.62-1.656l3.06-2.664c.408.672.984 1.296 1.728 1.872.768.552 1.716.828 2.844.828.888 0 1.572-.168 2.052-.504.504-.36.756-.804.756-1.332 0-.432-.156-.78-.468-1.044-.312-.288-.732-.516-1.26-.684a19.508 19.508 0 0 0-1.764-.54 50.377 50.377 0 0 1-2.088-.648 8.842 8.842 0 0 1-1.98-.936 5.05 5.05 0 0 1-1.476-1.548c-.36-.624-.54-1.404-.54-2.34 0-1.56.612-2.82 1.836-3.78 1.224-.984 2.844-1.476 4.86-1.476 1.416 0 2.7.288 3.852.864a6.506 6.506 0 0 1 2.736 2.412l-2.772 2.196a3.984 3.984 0 0 0-1.728-1.548 4.789 4.789 0 0 0-2.232-.54c-.696 0-1.272.132-1.728.396-.432.264-.648.624-.648 1.08 0 .312.096.576.288.792.216.216.552.408 1.008.576.48.144 1.104.312 1.872.504.72.168 1.464.372 2.232.612.768.24 1.488.564 2.16.972a4.756 4.756 0 0 1 1.62 1.62c.408.672.612 1.524.612 2.556 0 1.176-.3 2.22-.9 3.132-.6.888-1.44 1.584-2.52 2.088s-2.352.756-3.816.756Zm18.744 0c-1.536 0-2.856-.252-3.96-.756s-2.016-1.176-2.736-2.016a8.744 8.744 0 0 1-1.548-2.916 11.804 11.804 0 0 1-.504-3.456c0-1.152.168-2.28.504-3.384.336-1.104.84-2.1 1.512-2.988.672-.888 1.536-1.596 2.592-2.124 1.08-.552 2.364-.828 3.852-.828 1.392 0 2.604.24 3.636.72a6.662 6.662 0 0 1 2.556 1.944c.672.816 1.176 1.776 1.512 2.88.36 1.104.54 2.28.54 3.528 0 .168-.012.408-.036.72 0 .288-.024.6-.072.936h-12.132c.12 1.272.588 2.232 1.404 2.88.84.648 1.884.972 3.132.972.912 0 1.8-.156 2.664-.468a7.519 7.519 0 0 0 2.304-1.404l2.232 3.024a18.53 18.53 0 0 1-2.376 1.584 8.34 8.34 0 0 1-2.34.864c-.792.192-1.704.288-2.736.288Zm3.528-9.972c.048-.192.084-.384.108-.576.048-.192.072-.372.072-.54 0-.504-.096-.972-.288-1.404a3.68 3.68 0 0 0-.792-1.188 3.196 3.196 0 0 0-1.224-.756c-.456-.192-.984-.288-1.584-.288-.888 0-1.632.18-2.232.54-.6.36-1.056.828-1.368 1.404a4.996 4.996 0 0 0-.54 1.728h9.36l-1.512 1.08Zm14.726 9.972c-.96 0-1.848-.18-2.664-.54-.816-.36-1.476-.948-1.98-1.764-.48-.816-.72-1.908-.72-3.276V15.112l4.536-2.412v17.856c0 1.032.132 1.812.396 2.34.288.528.84.792 1.656.792.24 0 .504-.024.792-.072.312-.048.648-.12 1.008-.216v3.42a7.035 7.035 0 0 1-1.512.396 8.064 8.064 0 0 1-1.512.144Zm-8.604-14.616v-3.492h11.628v3.492h-11.628Z"/><defs><linearGradient id="a" x1=".706" x2="35.296" y1="24.5" y2="24.5" gradientUnits="userSpaceOnUse"><stop stop-color="#FF621F"/><stop offset="1" stop-color="#FF8551"/></linearGradient></defs></svg>