<svg xmlns="http://www.w3.org/2000/svg" width="28" height="32" fill="none"><path fill="url(#a)" d="M27.618 13.803s1.319-6.125-6.315-6.956c0 0 .899-1.54 4.589-2.01 0 0-3.477-4.252-9.209.206C13.952-1.683 8.813.26 8.813.26c2.963 2.25 2.968 4.036 2.968 4.036-7.025-3.098-8.946 2.865-8.946 2.865 4.502-1.384 8.498 1.225 8.498 1.225-10.641-.18-6.914 9.487-6.914 9.487 4.886-7.356 10.442-6.031 10.442-6.031s5.477 1.63 6.03 10.444c0 0 8.06-6.508-1.246-11.674 0 0 4.769-.26 7.973 3.19Z"/><path fill="url(#b)" d="M9.759 27.549c.009-.088.015-.173.026-.258a33.5 33.5 0 0 1 .693-3.653c.862-3.48 2.288-6.873 4.239-9.905-.14-.07-.252-.12-.32-.144a3.97 3.97 0 0 0-.59-.04c-.498 0-1.145.067-1.89.29-.252.376-.512.746-.75 1.126a39.247 39.247 0 0 0-1.94 3.445 35.82 35.82 0 0 0-3.098 9.044C1.744 27.779 0 29.688 0 32h14.985c.002-2.149-1.501-3.946-5.226-4.451Z"/><defs><linearGradient id="a" x1="27.705" x2="2.835" y1="11.143" y2="11.143" gradientUnits="userSpaceOnUse"><stop stop-color="#FF8551"/><stop offset="1" stop-color="#FF6320"/></linearGradient><linearGradient id="b" x1="14.985" x2="0" y1="22.775" y2="22.775" gradientUnits="userSpaceOnUse"><stop stop-color="#FF8551"/><stop offset="1" stop-color="#FF6320"/></linearGradient></defs></svg>