<svg xmlns="http://www.w3.org/2000/svg" width="32" height="32" fill="none"><path fill="url(#a)" d="m31.773 20.116-1.228-1.23c-.362-.359-1.07-.592-1.575-.514l-4.8.734-5.73-6.096-6.304-6.708-4.639-4.935a4.34 4.34 0 0 0-6.132-.19c-.013.015-.055.054-.095.093-.037.04-.078.08-.092.097a4.34 4.34 0 0 0 .187 6.132l4.937 4.638L4.166 26.3c-.077.507.157 1.216.516 1.576l1.777 1.775c.362.362.842.283 1.069-.175l5.484-11.036 6.095 5.729-.736 4.8c-.077.506.155 1.213.517 1.575l1.228 1.23c.362.361.844.28 1.075-.175l3.46-6.95 6.95-3.46c.456-.228.534-.711.172-1.073Z"/><path fill="url(#b)" d="M29.476 7.529c.459-.23.537-.708.176-1.07l-1.776-1.774c-.362-.362-1.07-.595-1.575-.52L14.313 5.974c1.587 1.762 3.863 4.286 5.659 6.275l9.504-4.72Z"/><defs><linearGradient id="a" x1="32.001" x2="0" y1="16" y2="16" gradientUnits="userSpaceOnUse"><stop stop-color="#FF8551"/><stop offset="1" stop-color="#FF6320"/></linearGradient><linearGradient id="b" x1="29.879" x2="14.313" y1="8.2" y2="8.2" gradientUnits="userSpaceOnUse"><stop stop-color="#FF8551"/><stop offset="1" stop-color="#FF6320"/></linearGradient></defs></svg>