<svg xmlns="http://www.w3.org/2000/svg" width="30" height="30" fill="none"><path fill="#EFC36A" d="M1.489 24.64a.47.47 0 0 1 .468-.468h26.091a.47.47 0 0 1 .469.468v3.395a.47.47 0 0 1-.469.469H1.958a.47.47 0 0 1-.47-.47V24.64Z"/><path fill="#63312D" d="M1.957 28.738h26.091a.704.704 0 0 0 .703-.703V24.64a.704.704 0 0 0-.703-.703H1.958a.704.704 0 0 0-.704.703v3.395c0 .388.316.703.703.703Zm26.091-4.332c.129 0 .235.105.235.234v3.395c0 .13-.106.234-.235.234H1.958a.235.235 0 0 1-.235-.234V24.64c0-.13.106-.234.234-.234h26.091Z"/><path fill="#F9DD9D" d="M4.518 24.64a.47.47 0 0 1 .469-.468h23.061a.47.47 0 0 1 .469.468v3.395a.47.47 0 0 1-.469.469H4.987a.47.47 0 0 1-.469-.47V24.64Z"/><path fill="#FFEECF" d="M27.58 25.578a.47.47 0 0 0-.47-.469H4.519v-.469a.47.47 0 0 1 .469-.468h23.061a.47.47 0 0 1 .469.468v3.395a.47.47 0 0 1-.469.469h-.469v-2.926Z"/><path fill="#63312D" d="M4.987 28.738h23.061a.704.704 0 0 0 .703-.703V24.64a.704.704 0 0 0-.703-.703H4.987a.704.704 0 0 0-.703.703v3.395c0 .388.315.703.703.703Zm23.061-4.332c.129 0 .235.105.235.234v3.395c0 .13-.106.234-.235.234H4.987a.235.235 0 0 1-.234-.234V24.64c0-.13.105-.234.234-.234h23.061Z"/><path fill="#F9A287" d="M9.795 14.204H4.237l4.913 6.122h5.523l-4.878-6.123Z"/><path fill="#63312D" d="M9.15 20.56h5.523a.234.234 0 0 0 .183-.38l-4.879-6.122a.234.234 0 0 0-.183-.088H4.237a.235.235 0 0 0-.182.38l4.912 6.123a.235.235 0 0 0 .183.087Zm5.037-.468H9.262l-4.537-5.654h4.956l4.506 5.653Z"/><path fill="#63312D" d="M9.15 20.56h5.523a.234.234 0 0 0 .183-.38l-4.879-6.122a.234.234 0 0 0-.183-.088H4.237a.235.235 0 0 0-.182.38l4.912 6.123a.235.235 0 0 0 .183.087Zm5.037-.468H9.262l-4.537-5.654h4.956l4.506 5.653Z"/><path fill="#DB785A" d="m4.237 14.204 4.913 6.122h19.352v1.667H8.284l-6.837-7.79h2.79Z"/><path fill="#63312D" d="M8.284 22.228h20.218c.13 0 .235-.105.235-.235v-1.667a.234.234 0 0 0-.235-.235H9.262L4.42 14.058a.235.235 0 0 0-.183-.088h-2.79a.234.234 0 0 0-.177.39l6.838 7.789c.044.05.109.08.176.08Zm19.984-.47H8.39l-6.427-7.32h2.16l4.842 6.035a.235.235 0 0 0 .183.087h19.119v1.199Z"/><path fill="#F9A287" d="M23.113 20.326h5.39v1.667h-5.39v-1.667Z"/><path fill="#FFC8BB" d="M27.565 20.326h.937v1.667h-.937v-1.667Z"/><path fill="#63312D" d="M23.113 22.228h5.39a.235.235 0 0 0 .234-.235v-1.667a.234.234 0 0 0-.235-.234h-5.389a.234.234 0 0 0-.234.234v1.667c0 .13.104.235.234.235Zm5.155-.47h-4.92V20.56h4.92v1.199Z"/><path fill="#F8F3F3" d="M26.627 21.993h.938v2.163h-.938v-2.163Zm-5.389 0h.938v2.163h-.938v-2.163Zm-6.652 0h.938v2.163h-.938v-2.163Zm-5.389 0h.937v2.163h-.937v-2.163Z"/><path fill="#63312D" d="M26.627 24.39h.938c.13 0 .234-.105.234-.234v-2.163a.234.234 0 0 0-.234-.234h-.938a.234.234 0 0 0-.234.234v2.163c0 .13.104.235.234.235Zm.703-.468h-.468v-1.694h.468v1.694Zm-6.092.468h.938a.234.234 0 0 0 .234-.234v-2.163a.234.234 0 0 0-.234-.234h-.938a.234.234 0 0 0-.234.234v2.163c0 .13.104.235.234.235Zm.703-.468h-.468v-1.694h.468v1.694Zm-7.355.468h.938a.234.234 0 0 0 .234-.234v-2.163a.234.234 0 0 0-.234-.234h-.938a.234.234 0 0 0-.234.234v2.163c0 .13.105.235.234.235Zm.703-.468h-.469v-1.694h.47v1.694Zm-6.092.468h.937c.13 0 .235-.105.235-.234v-2.163a.234.234 0 0 0-.235-.234h-.937a.234.234 0 0 0-.235.234v2.163c0 .13.105.235.235.235Zm.703-.468h-.469v-1.694H9.9v1.694Z"/><path fill="#F9DD9D" d="M15.782 20.326c.36 0 .72-.137.994-.412l3.394-3.394 3.392 3.391a1.406 1.406 0 1 0 1.988-1.988l-4.386-4.386a1.406 1.406 0 0 0-1.988 0l-4.388 4.388a1.406 1.406 0 0 0 .994 2.4Z"/><path fill="#FFEECF" d="m24.916 18.86-4.386-4.386c-.394-.394-1.286-.5-1.963-.329l.609-.608c.549-.55 1.44-.55 1.988 0l4.386 4.386a1.406 1.406 0 0 1-.246 2.182 1.402 1.402 0 0 0-.388-1.245Z"/><path fill="#63312D" d="M15.782 20.56c.438 0 .85-.17 1.16-.48l3.228-3.228 3.227 3.225c.619.62 1.7.62 2.32 0 .31-.31.48-.722.48-1.16 0-.438-.17-.85-.48-1.16l-4.386-4.386c-.62-.62-1.701-.62-2.32 0l-4.388 4.388c-.31.31-.48.722-.48 1.16 0 .439.17.85.48 1.16.309.31.72.481 1.159.481Zm4.388-4.275c-.06 0-.12.023-.166.069l-3.394 3.394c-.443.442-1.215.442-1.657 0a1.164 1.164 0 0 1-.343-.829c0-.313.122-.607.343-.829l4.388-4.388c.443-.443 1.215-.443 1.657 0l4.386 4.386c.222.221.343.516.343.829 0 .313-.122.607-.343.828a1.2 1.2 0 0 1-1.657 0l-3.392-3.39a.232.232 0 0 0-.165-.07Z"/><path fill="#F9DD9D" d="M12.36 20.323h13.448a1.406 1.406 0 0 0 0-2.812H13.975l-2.28-4.033c-.412-.79-1.466-2.131-3.224-1.23-1.648.844-1.334 2.377-.85 2.984l3.64 4.562c.267.335.671.53 1.099.53Z"/><path fill="#FFEECF" d="M26.413 19.855c0-.777-.63-1.407-1.406-1.407H13.174l-2.28-4.033c-.411-.79-1.466-2.13-3.224-1.23-.11.056-.209.116-.302.177.167-.41.505-.808 1.103-1.115 1.758-.9 2.812.44 3.223 1.23l2.28 4.034h11.834a1.406 1.406 0 0 1 .555 2.698c.029-.114.05-.231.05-.354Z"/><path fill="#63312D" d="M12.36 20.558h13.448a1.642 1.642 0 0 0 0-3.281H14.112l-2.214-3.914c-.299-.576-1.448-2.392-3.535-1.324-.91.467-1.22 1.112-1.318 1.572a2.19 2.19 0 0 0 .393 1.768l3.64 4.562c.313.392.78.617 1.282.617Zm13.448-2.813c.646 0 1.172.526 1.172 1.172 0 .646-.526 1.172-1.172 1.172H12.36c-.359 0-.692-.16-.916-.44l-3.64-4.563c-.234-.293-.417-.833-.3-1.377.112-.524.474-.945 1.074-1.253 1.655-.848 2.585.508 2.908 1.13l2.284 4.04c.042.074.12.12.205.12h11.833Z"/><path fill="#F9A287" d="M5.603 9.095a2.296 2.296 0 1 0 4.592 0 2.296 2.296 0 0 0-4.592 0Z"/><path fill="#FFC8BB" d="M9.259 9.095A2.297 2.297 0 0 0 7.43 6.846a2.297 2.297 0 1 1 0 4.496 2.296 2.296 0 0 0 1.828-2.247Z"/><path fill="#63312D" d="M7.9 11.626a2.534 2.534 0 0 0 2.53-2.53A2.534 2.534 0 0 0 7.9 6.563a2.533 2.533 0 0 0-2.531 2.531 2.533 2.533 0 0 0 2.53 2.53Zm0-4.593c1.137 0 2.062.925 2.062 2.062a2.065 2.065 0 0 1-2.063 2.062 2.064 2.064 0 0 1-2.061-2.062c0-1.137.924-2.062 2.061-2.062ZM21.042 9.91l.412.99-.433.18-.412-.99.433-.18Zm-.036-7.324.433.178-.409.992-.433-.178.409-.992Zm-3.021 7.33.433.178-.408.992-.433-.179.408-.991Zm1.289.346h.468v1.913h-.468v-1.913Zm0-8.766h.468v1.913h-.468V1.496ZM22.935 6.6h1.913v.47h-1.913V6.6Zm-8.767 0h1.913v.47h-1.913V6.6Zm7.929 2.492 1.352 1.353-.331.332-1.353-1.353.332-.332Zm-6.199-6.198 1.352 1.352-.331.332-1.352-1.353.331-.331Zm7.22 0 .331.331-1.353 1.353-.331-.332 1.353-1.352Zm-6.199 6.2.331.331-1.352 1.353-.331-.332 1.352-1.352Zm1.075-6.503.41.986-.432.18-.41-.986.432-.18Zm5.578 2.299.18.432-.99.413-.18-.433.99-.413Zm-8.136.014.992.409-.178.433-.993-.408.179-.434Zm7.33 3.021.991.408-.178.434-.992-.409.179-.433Zm-6.517.014.18.432-.985.411-.18-.432.985-.411Z"/><path fill="#F9A287" d="M17.38 6.835a2.129 2.129 0 1 0 4.257 0 2.129 2.129 0 0 0-4.258 0Z"/><path fill="#FFC8BB" d="M20.65 6.835a2.126 2.126 0 0 0-1.635-2.066c.159-.038.322-.063.493-.063a2.129 2.129 0 0 1 0 4.258c-.17 0-.334-.025-.493-.063a2.126 2.126 0 0 0 1.635-2.066Z"/><path fill="#63312D" d="M19.508 9.199a2.366 2.366 0 0 0 2.363-2.364 2.366 2.366 0 0 0-2.363-2.363 2.366 2.366 0 0 0-2.363 2.363A2.366 2.366 0 0 0 19.508 9.2Zm0-4.258c1.045 0 1.894.85 1.894 1.895s-.85 1.894-1.894 1.894a1.897 1.897 0 0 1-1.894-1.894c0-1.045.85-1.895 1.894-1.895Z"/><path fill="#F9DD9D" d="M13.31 18.455h4.942a.938.938 0 0 0 0-1.875h-4.58l-3.407-3.09a.938.938 0 0 0-1.26 1.39l3.674 3.332a.94.94 0 0 0 .63.243Z"/><path fill="#FFEECF" d="M17.666 17.518h-4.58l-3.407-3.09a.935.935 0 0 0-.977-.173.938.938 0 0 1 1.563-.765l3.406 3.09h4.58a.938.938 0 0 1 .345 1.807.934.934 0 0 0-.93-.87Z"/><path fill="#63312D" d="M13.31 18.69h4.942c.646 0 1.172-.527 1.172-1.172 0-.646-.526-1.172-1.172-1.172h-4.49l-3.34-3.029a1.173 1.173 0 0 0-1.574 1.736l3.674 3.332c.217.197.496.304.787.304Zm4.942-1.876a.704.704 0 0 1 0 1.407h-4.943a.705.705 0 0 1-.473-.183l-3.673-3.332a.703.703 0 0 1 .945-1.042l3.406 3.09c.043.038.099.06.157.06h4.58Z"/></svg>