<svg xmlns="http://www.w3.org/2000/svg" width="46" height="46" fill="none"><path fill="url(#a)" fill-rule="evenodd" d="m32.576 28.109-2.595 6.952c-.357.957-.915 1.837-1.6 1.112-.204-.216-.377-.505-.345-.823l.572-5.642a.088.088 0 0 1 .054-.074l3.794-1.64a.088.088 0 0 1 .098.018.088.088 0 0 1 .022.097Zm-4.92 14.27v1.932c0 .095.08.175.174.175h2.155c.096 0 .175-.08.175-.175V42.38a.09.09 0 0 0-.09-.09h-2.325a.09.09 0 0 0-.09.09Zm-11.816 0v1.932c0 .095.08.175.175.175h2.155c.095 0 .174-.08.174-.175V42.38a.09.09 0 0 0-.09-.09H15.93a.09.09 0 0 0-.09.09Zm29.09-28.81c-1.208-2.908-7.861-1.921-11.164-1.248a.088.088 0 0 0-.07.074.088.088 0 0 0 .045.092c.36.203.68.472.942.793a.088.088 0 0 0 .086.031c2.123-.397 3.987-.584 5.49-.548 4.167.102 4.787 1.708 1.91 4.718-.787.823-1.806 1.7-3.023 2.605a.087.087 0 0 0-.036.083.087.087 0 0 0 .054.072l1.046.442c.03.012.063.008.09-.012 1.07-.824 1.983-1.627 2.711-2.389 1.716-1.795 2.45-3.434 1.918-4.712Zm-6.805 7.246a3.927 3.927 0 0 0-1.244-.167c-.97.028-1.593.38-2.408.79a.087.087 0 0 1-.087-.003.087.087 0 0 1-.043-.076V16.15a3.281 3.281 0 0 0-3.273-3.273H14.93a3.281 3.281 0 0 0-3.273 3.273v15.727c0 .043-.03.08-.073.088-1.409.274-2.712.46-3.88.55-3.07.241-5.12-.13-5.559-1.189-.365-.878.417-2.234 2.061-3.844 1.5-1.47 3.693-3.089 6.39-4.718a.087.087 0 0 0 .044-.077v-1.144a.087.087 0 0 0-.045-.078.088.088 0 0 0-.09 0c-3.01 1.78-5.457 3.566-7.114 5.188-1.999 1.958-2.889 3.75-2.32 5.12.657 1.584 3.126 2.185 6.72 1.904 2.761-.216 6.606-1.191 10.196-2.306.072-.023.146-.041.217-.068 1.147-.44-1.24-3.476-1.837-4.444a.087.087 0 0 1-.007-.082.087.087 0 0 1 .064-.052.141.141 0 0 1 .1.016l3.514 1.838c.781.408 1.585.67 2.371.272l13.305-6.73c.78-.395 1.6-.418 2.414-.07l2.106.9a.224.224 0 0 1 .001.414c-9.234 3.99-18.558 8.901-28.505 10.799a.089.089 0 0 0-.073.088v3.903a3.281 3.281 0 0 0 3.273 3.273h16.14a3.281 3.281 0 0 0 3.273-3.273V27.24c0-.037.02-.068.054-.083l6.298-2.72c1.118-.482 1.115-2.076-.006-2.555l-1.28-.546v-.001l-1.276-.516a.064.064 0 0 0-.008-.003Zm-11.379-9.038v-5.88a.09.09 0 0 1 .027-.064.086.086 0 0 1 .063-.026c.417.001.764 0 1.118-.354.218-.218.353-.52.353-.851V2.719c0-.664-.54-1.205-1.204-1.205h-8.205c-.664 0-1.205.54-1.205 1.205v1.883c0 .664.54 1.205 1.205 1.205h.266c.05 0 .09.04.09.09v5.88c0 .05.04.09.09.09h.986a.09.09 0 0 0 .09-.09v-5.88c0-.05.04-.09.089-.09h4.982c.05 0 .09.04.09.09v5.88c0 .05.04.09.09.09h.986c.05 0 .09-.04.09-.09Zm-6.253 11.041a.132.132 0 0 0-.004-.003c-.83-.526-.475-1.14.501-.866h.004l8.16 1.957a.088.088 0 0 1 .068.077.088.088 0 0 1-.05.09l-4.019 1.998a.088.088 0 0 1-.092-.007l-4.568-3.246Z" clip-rule="evenodd"/><defs><linearGradient id="a" x1=".902" x2="45.099" y1="23" y2="23" gradientUnits="userSpaceOnUse"><stop stop-color="#FF621F"/><stop offset="1" stop-color="#FF8551"/></linearGradient></defs></svg>