<svg xmlns="http://www.w3.org/2000/svg" width="30" height="31" fill="none"><path fill="#F8F3F3" d="m28.514 26.256-7.183-2.412-6.33 2.412-6.369-2.412-7.145 2.412L4.815 14.97l5.385-1.818L15 14.97l4.771-1.818 5.414 1.818 3.328 11.286Z"/><path fill="#63312D" d="M28.514 26.49a.226.226 0 0 1-.075-.011l-7.102-2.386-6.251 2.383a.234.234 0 0 1-.167 0l-6.291-2.383-7.066 2.385a.235.235 0 0 1-.3-.288L4.59 14.903a.234.234 0 0 1 .149-.155l5.385-1.818a.232.232 0 0 1 .159.002L15 14.72l4.687-1.787a.237.237 0 0 1 .158-.003l5.414 1.818a.234.234 0 0 1 .15.156l3.327 11.287a.234.234 0 0 1-.223.3ZM8.632 23.61c.028 0 .056.005.083.015l6.287 2.38 6.246-2.38a.237.237 0 0 1 .158-.003l6.756 2.269-3.166-10.738-5.218-1.752-4.693 1.788a.234.234 0 0 1-.167 0L10.195 13.4l-5.19 1.752L1.839 25.89l6.718-2.268a.225.225 0 0 1 .075-.012Z"/><path fill="#F9A287" d="m5.956 16.068-2.355 7.99 5.058-1.707 1.513-7.706-4.216 1.423Z"/><path fill="#FFC8BB" d="m6.562 16.557 3.465-1.17.145-.742-4.216 1.423-2.355 7.99.832-.28 2.129-7.221Z"/><path fill="#DB785A" d="M10.172 14.645 8.66 22.35 15 24.752l.003-8.278-4.83-1.83Z"/><path fill="#F9A287" d="M15.003 16.474 15 24.752l6.301-2.402-1.499-7.706-4.8 1.83Z"/><path fill="#DB785A" d="m24.044 16.07-4.242-1.425 1.5 7.705 5.099 1.713-2.357-7.993Z"/><path fill="#63312D" d="M3.601 24.292a.235.235 0 0 1-.225-.3l2.355-7.99a.234.234 0 0 1 .15-.156l4.216-1.424a.234.234 0 0 1 .305.268l-1.514 7.705a.234.234 0 0 1-.155.177L3.675 24.28a.212.212 0 0 1-.074.012Zm2.546-8.04-2.194 7.44 4.502-1.52 1.41-7.176-3.718 1.255Z"/><path fill="#63312D" d="M15 24.986a.24.24 0 0 1-.083-.015l-6.341-2.4a.234.234 0 0 1-.147-.265L9.943 14.6a.234.234 0 0 1 .313-.174l4.83 1.829a.235.235 0 0 1 .152.219l-.004 8.278a.235.235 0 0 1-.234.235Zm-6.073-2.784 5.839 2.21.002-7.776-4.42-1.674-1.421 7.24Z"/><path fill="#63312D" d="M15 24.987a.234.234 0 0 1-.234-.234l.002-8.279c0-.097.06-.184.151-.219l4.8-1.829a.233.233 0 0 1 .313.174l1.5 7.705a.235.235 0 0 1-.147.264l-6.301 2.403a.244.244 0 0 1-.084.015Zm.237-8.352-.003 7.777 5.8-2.211-1.409-7.238-4.388 1.672Z"/><path fill="#63312D" d="M26.401 24.297a.229.229 0 0 1-.075-.012l-5.1-1.713a.236.236 0 0 1-.155-.177l-1.499-7.705a.235.235 0 0 1 .305-.268l4.242 1.426a.233.233 0 0 1 .15.156l2.356 7.993a.233.233 0 0 1-.224.3Zm-4.896-2.126 4.544 1.526-2.195-7.444-3.745-1.258 1.396 7.176Z"/><path fill="#82D9FF" d="M11.405 19.426c0-.967 1.675-1.751 3.74-1.751 2.067 0 3.74.785 3.74 1.751 0 .967-1.674 1.752-3.74 1.752-2.066 0-3.74-.785-3.74-1.752Z"/><path fill="#63312D" d="M15.146 21.412c-2.23 0-3.975-.872-3.975-1.985 0-1.114 1.746-1.986 3.975-1.986s3.974.872 3.974 1.986c0 1.113-1.745 1.985-3.974 1.985Zm0-3.503c-2.098 0-3.507.785-3.507 1.517 0 .733 1.41 1.517 3.507 1.517 2.097 0 3.506-.784 3.506-1.517 0-.732-1.409-1.517-3.506-1.517Z"/><path fill="#EFC36A" d="M16.527 4.743a5.456 5.456 0 0 1 5.456 5.457c0 1.68-.885 2.993-1.845 4.301-.805 1.1-3.203 4.393-3.612 4.926h-2.764V4.743h2.765Z"/><path fill="#63312D" d="M16.527 19.66h-2.764a.234.234 0 0 1-.234-.234V4.743c0-.13.105-.234.234-.234h2.764a5.697 5.697 0 0 1 5.69 5.69c0 1.722-.856 3.03-1.89 4.44l-.931 1.276c-1.006 1.377-2.383 3.263-2.683 3.654a.234.234 0 0 1-.186.092Zm-2.53-.468h2.413c.401-.533 1.667-2.266 2.608-3.554l.932-1.276c.984-1.343 1.799-2.583 1.799-4.163a5.228 5.228 0 0 0-5.222-5.222h-2.53v14.215Z"/><path fill="#F9DD9D" d="M13.763 4.743A5.455 5.455 0 0 0 8.308 10.2c0 1.68.885 2.993 1.845 4.301l3.61 4.926c.408-.533 2.805-3.826 3.612-4.926.96-1.308 1.845-2.621 1.845-4.301a5.457 5.457 0 0 0-5.457-5.457Z"/><path fill="#FFEECF" d="M11.09 14.501c-.959-1.308-1.844-2.621-1.844-4.301a5.452 5.452 0 0 1 4.986-5.433 5.537 5.537 0 0 0-.47-.024A5.455 5.455 0 0 0 8.309 10.2c0 1.68.885 2.993 1.845 4.301l3.61 4.926c.083-.109.253-.338.472-.635l-3.145-4.29Z"/><path fill="#63312D" d="M13.763 19.66h-.002a.234.234 0 0 1-.187-.095l-3.61-4.926c-1.034-1.41-1.89-2.717-1.89-4.44a5.697 5.697 0 0 1 5.69-5.69 5.698 5.698 0 0 1 5.69 5.69c0 1.722-.855 3.03-1.89 4.44l-1.083 1.482c-1.001 1.37-2.247 3.076-2.532 3.448a.236.236 0 0 1-.186.092Zm0-14.682a5.227 5.227 0 0 0-5.22 5.222c0 1.58.814 2.82 1.799 4.162l3.423 4.671c.462-.622 1.488-2.026 2.337-3.188l1.084-1.483c.985-1.343 1.8-2.582 1.8-4.162a5.229 5.229 0 0 0-5.223-5.222Z"/><path fill="#F8F3F3" d="M16.396 10.152a2.633 2.633 0 1 1-5.266-.002 2.633 2.633 0 0 1 5.266.002Z"/><path fill="#63312D" d="M13.763 13.019a2.87 2.87 0 0 1-2.867-2.866 2.87 2.87 0 0 1 2.867-2.868 2.87 2.87 0 0 1 2.867 2.868 2.87 2.87 0 0 1-2.867 2.866Zm0-5.265a2.4 2.4 0 0 0-2.398 2.398 2.4 2.4 0 0 0 2.398 2.398 2.4 2.4 0 0 0 2.399-2.398 2.401 2.401 0 0 0-2.4-2.398Z"/></svg>