<svg xmlns="http://www.w3.org/2000/svg" width="50" height="40" fill="none"><path fill="#FF6321" d="M11.502 0c3.405 0 6.242 1.1 8.505 3.302 2.262 2.2 3.394 5.061 3.394 8.583 0 5.977-3.496 10.15-10.482 12.515-.28.095-.822.392-.61.862.927 2.058 2.329 4.119 4.223 6.179.967 1 2.516 2.412 4.647 4.24.448.384 1.142 1.311.57 2.31l-1.182 1.537c-.64.736-1.736.467-2.171.16C6.132 31.11 0 22.228 0 13.036 0 9.9 1.144 6.985 3.433 4.29 5.78 1.43 8.468 0 11.502 0Zm26.597 0c3.408 0 6.244 1.1 8.508 3.302C48.868 5.502 50 8.363 50 11.885c0 5.977-3.496 10.15-10.482 12.515-.28.095-.822.392-.61.862.925 2.058 2.326 4.119 4.223 6.179.967 1 2.516 2.412 4.648 4.24.447.384 1.141 1.311.57 2.31l-1.183 1.537c-.64.736-1.736.467-2.171.16-12.264-8.578-18.396-17.46-18.396-26.652 0-3.137 1.145-6.052 3.433-8.747C32.377 1.43 35.066 0 38.1 0Z" opacity=".1"/></svg>